<?xml version="1.0" encoding="UTF-8" standalone="no"?>
<!-- Created with Inkscape (http://www.inkscape.org/) -->

<svg
   xmlns:dc="http://purl.org/dc/elements/1.1/"
   xmlns:cc="http://creativecommons.org/ns#"
   xmlns:rdf="http://www.w3.org/1999/02/22-rdf-syntax-ns#"
   xmlns:svg="http://www.w3.org/2000/svg"
   xmlns="http://www.w3.org/2000/svg"
   xmlns:sodipodi="http://sodipodi.sourceforge.net/DTD/sodipodi-0.dtd"
   xmlns:inkscape="http://www.inkscape.org/namespaces/inkscape"
   width="600"
   height="79.888718"
   viewBox="0 0 600 79.888719"
   id="svg2"
   version="1.1"
   inkscape:version="0.48.5 r10040"
   sodipodi:docname="logo-datewithdata.svg">
  <defs
     id="defs4" />
  <sodipodi:namedview
     id="base"
     pagecolor="#ffffff"
     bordercolor="#666666"
     borderopacity="1.0"
     inkscape:pageopacity="0.0"
     inkscape:pageshadow="2"
     inkscape:zoom="1.4"
     inkscape:cx="21.672901"
     inkscape:cy="25.832096"
     inkscape:document-units="px"
     inkscape:current-layer="layer1"
     showgrid="false"
     inkscape:object-paths="true"
     showguides="false"
     inkscape:guide-bbox="true"
     inkscape:object-nodes="true"
     inkscape:snap-global="false"
     inkscape:window-width="1438"
     inkscape:window-height="879"
     inkscape:window-x="0"
     inkscape:window-y="19"
     inkscape:window-maximized="1"
     fit-margin-top="0"
     fit-margin-left="0"
     fit-margin-right="0"
     fit-margin-bottom="0">
    <sodipodi:guide
       position="-18.213707,332.78292"
       orientation="0,1"
       id="guide4197" />
    <sodipodi:guide
       position="-18.213707,301.02038"
       orientation="0,1"
       id="guide4199" />
  </sodipodi:namedview>
  <metadata
     id="metadata7">
    <rdf:RDF>
      <cc:Work
         rdf:about="">
        <dc:format>image/svg+xml</dc:format>
        <dc:type
           rdf:resource="http://purl.org/dc/dcmitype/StillImage" />
        <dc:title></dc:title>
      </cc:Work>
    </rdf:RDF>
  </metadata>
  <g
     inkscape:label="Layer 1"
     inkscape:groupmode="layer"
     id="layer1"
     transform="translate(-79.636725,-410.81441)">
    <g
       id="g3011"
       transform="matrix(2.5133975,0,0,2.5133975,-120.52201,-742.62887)">
      <path
         inkscape:connector-curvature="0"
         id="path4438"
         style="font-size:medium;font-style:normal;font-variant:normal;font-weight:normal;font-stretch:normal;text-align:start;line-height:125%;letter-spacing:-2.79999995px;word-spacing:0px;writing-mode:lr-tb;text-anchor:start;fill:#000000;fill-opacity:1;stroke:none;font-family:Victors Pixel Font;-inkscape-font-specification:'Victors Pixel Font, Normal'"
         d="m 142.80591,481.95312 -2.85714,0 0,-14.28572 2.85714,0 0,14.28572 z m 0,-5.71429 0,-2.85714 5.68571,0 0,2.85714 -5.68571,0 z m 0,-5.71428 0,-2.85715 8.57143,0 0,2.85715 -8.57143,0 z m 0,11.42857 0,-2.85715 8.57143,0 0,2.85715 -8.57143,0 z m -20.09619,-11.42857 0,-2.85715 14.2857,0 0,2.85715 -14.2857,0 z m 8.57141,11.42857 -2.85714,0 0,-11.42857 2.85714,0 0,11.42857 z m -22.89475,-11.42857 0,-2.85715 8.57143,0 0,2.85715 -8.57143,0 z m 0,5.71428 0,-2.85714 8.57143,0 0,2.85714 -8.57143,0 z m 0,5.71429 -2.85714,0 0,-11.42857 2.85714,0 0,11.42857 z m 11.42858,0 -2.85715,0 0,-11.42857 2.85715,0 0,11.42857 z m -28.609046,0 -2.857142,0 0,-14.28572 2.857142,0 0,14.28572 z m 0,-11.42857 0,-2.85715 8.571429,0 0,2.85715 -8.571429,0 z m 0,11.42857 0,-2.85715 8.571429,0 0,2.85715 -8.571429,0 z m 11.428576,-2.85715 -2.857147,0 0,-8.57142 2.857147,0 0,8.57142 z"
         inkscape:export-xdpi="180"
         inkscape:export-ydpi="180" />
      <path
         inkscape:connector-curvature="0"
         id="path4440"
         style="font-size:medium;font-style:normal;font-variant:normal;font-weight:normal;font-stretch:normal;text-align:start;line-height:125%;letter-spacing:-2.79999995px;word-spacing:0px;writing-mode:lr-tb;text-anchor:start;fill:#000000;fill-opacity:1;stroke:none;font-family:Victors Pixel Font;-inkscape-font-specification:'Victors Pixel Font, Normal'"
         d="m 217.72034,481.95312 -2.85714,0 0,-14.28572 2.85714,0 0,14.28572 z m 0,-5.71429 0,-2.85714 5.71429,0 0,2.85714 -5.71429,0 z m 8.57143,5.71429 -2.85714,0 0,-14.28572 2.85714,0 0,14.28572 z m -28.66763,-11.42857 0,-2.85715 14.28571,0 0,2.85715 -14.28571,0 z m 8.57142,11.42857 -2.85714,0 0,-11.42857 2.85714,0 0,11.42857 z m -11.46897,0 -2.85714,0 0,-14.28572 2.85714,0 0,14.28572 z m -22.86406,-2.85715 -2.85714,0 0,-11.42857 2.85714,0 0,11.42857 z m 0,2.85715 0,-2.85715 5.68571,0 0,2.85715 -5.68571,0 z m 8.57143,0 0,-2.85715 5.68571,0 0,2.85715 -5.68571,0 z m 8.57143,-2.85715 -2.85715,0 0,-11.42857 2.85715,0 0,11.42857 z m -8.57143,0 -2.85715,0 0,-8.57142 2.85715,0 0,8.57142 z"
         inkscape:export-xdpi="180"
         inkscape:export-ydpi="180" />
      <path
         inkscape:connector-curvature="0"
         id="path4442"
         style="font-size:medium;font-style:normal;font-variant:normal;font-weight:normal;font-stretch:normal;text-align:start;line-height:125%;letter-spacing:-2.79999995px;word-spacing:0px;writing-mode:lr-tb;text-anchor:start;fill:#000000;fill-opacity:1;stroke:none;font-family:Victors Pixel Font;-inkscape-font-specification:'Victors Pixel Font, Normal'"
         d="m 298.25681,470.52455 0,-2.85715 8.57143,0 0,2.85715 -8.57143,0 z m 0,5.71428 0,-2.85714 8.57143,0 0,2.85714 -8.57143,0 z m 0,5.71429 -2.85714,0 0,-11.42857 2.85714,0 0,11.42857 z m 11.42857,0 -2.85714,0 0,-11.42857 2.85714,0 0,11.42857 z m -31.52477,-11.42857 0,-2.85715 14.28571,0 0,2.85715 -14.28571,0 z m 8.57142,11.42857 -2.85714,0 0,-11.42857 2.85714,0 0,11.42857 z m -22.89475,-11.42857 0,-2.85715 8.57143,0 0,2.85715 -8.57143,0 z m 0,5.71428 0,-2.85714 8.57143,0 0,2.85714 -8.57143,0 z m 0,5.71429 -2.85714,0 0,-11.42857 2.85714,0 0,11.42857 z m 11.42857,0 -2.85714,0 0,-11.42857 2.85714,0 0,11.42857 z m -28.60904,0 -2.85714,0 0,-14.28572 2.85714,0 0,14.28572 z m 0,-11.42857 0,-2.85715 8.57143,0 0,2.85715 -8.57143,0 z m 0,11.42857 0,-2.85715 8.57143,0 0,2.85715 -8.57143,0 z m 11.42857,-2.85715 -2.85714,0 0,-8.57142 2.85714,0 0,8.57142 z"
         inkscape:export-xdpi="180"
         inkscape:export-ydpi="180" />
      <path
         inkscape:connector-curvature="0"
         style="font-size:medium;font-style:normal;font-variant:normal;font-weight:normal;font-stretch:normal;text-align:start;line-height:125%;letter-spacing:-2.79999995px;word-spacing:0px;writing-mode:lr-tb;text-anchor:start;fill:#000000;fill-opacity:1;stroke:none;font-family:Victors Pixel Font;-inkscape-font-specification:'Victors Pixel Font, Normal'"
         d="m 79.636719,458.91797 0,31.78515 2.857422,0 71.845699,0 0,-2.85742 -71.845699,0 0,-26.07031 71.845699,0 0,-2.85742 -71.845699,0 -1.294922,0 -1.5625,0 z"
         id="path4444"
         inkscape:export-xdpi="180"
         inkscape:export-ydpi="180" />
      <path
         inkscape:connector-curvature="0"
         style="font-size:medium;font-style:normal;font-variant:normal;font-weight:normal;font-stretch:normal;text-align:start;line-height:125%;letter-spacing:-2.79999995px;word-spacing:0px;writing-mode:lr-tb;text-anchor:start;fill:#000000;fill-opacity:1;stroke:none;font-family:Victors Pixel Font;-inkscape-font-specification:'Victors Pixel Font, Normal'"
         d="m 160.13477,458.91797 0,31.78515 2.85742,0 66.30859,0 0,-2.85742 -66.30859,0 0,-26.07031 66.30859,0 0,-2.85742 -66.30859,0 -1.29492,0 -1.5625,0 z"
         id="path4446"
         inkscape:export-xdpi="180"
         inkscape:export-ydpi="180" />
      <path
         inkscape:connector-curvature="0"
         style="font-size:medium;font-style:normal;font-variant:normal;font-weight:normal;font-stretch:normal;text-align:start;line-height:125%;letter-spacing:-2.79999995px;word-spacing:0px;writing-mode:lr-tb;text-anchor:start;fill:#000000;fill-opacity:1;stroke:none;font-family:Victors Pixel Font;-inkscape-font-specification:'Victors Pixel Font, Normal'"
         d="m 235.05273,458.91797 0,31.78515 2.85743,0 78.4375,0 2.00976,0 0,-31.78515 -1.02734,0 -1.83008,0 -77.58984,0 -1.29493,0 -1.5625,0 z m 2.85743,2.85742 77.58984,0 0,26.07031 -77.58984,0 0,-26.07031 z"
         id="path4448"
         inkscape:export-xdpi="180"
         inkscape:export-ydpi="180" />
    </g>
  </g>
</svg>
