<?xml version="1.0" encoding="UTF-8" standalone="no"?>
<!-- Created with Inkscape (http://www.inkscape.org/) -->

<svg
   xmlns:dc="http://purl.org/dc/elements/1.1/"
   xmlns:cc="http://creativecommons.org/ns#"
   xmlns:rdf="http://www.w3.org/1999/02/22-rdf-syntax-ns#"
   xmlns:svg="http://www.w3.org/2000/svg"
   xmlns="http://www.w3.org/2000/svg"
   xmlns:sodipodi="http://sodipodi.sourceforge.net/DTD/sodipodi-0.dtd"
   xmlns:inkscape="http://www.inkscape.org/namespaces/inkscape"
   width="524.30688"
   height="35.905701"
   viewBox="0 0 524.30688 35.905701"
   id="svg2"
   version="1.1"
   inkscape:version="0.92.4 (5da689c313, 2019-01-14)"
   sodipodi:docname="datewithdata_branco.svg">
  <defs
     id="defs4" />
  <sodipodi:namedview
     id="base"
     pagecolor="#ffffff"
     bordercolor="#666666"
     borderopacity="1.0"
     inkscape:pageopacity="0.0"
     inkscape:pageshadow="2"
     inkscape:zoom="0.98209276"
     inkscape:cx="474.52218"
     inkscape:cy="-36.667724"
     inkscape:document-units="px"
     inkscape:current-layer="layer1"
     showgrid="false"
     inkscape:object-paths="true"
     showguides="false"
     inkscape:guide-bbox="true"
     inkscape:object-nodes="true"
     inkscape:snap-global="false"
     inkscape:window-width="1438"
     inkscape:window-height="879"
     inkscape:window-x="0"
     inkscape:window-y="19"
     inkscape:window-maximized="1"
     fit-margin-top="0"
     fit-margin-left="0"
     fit-margin-right="0"
     fit-margin-bottom="0">
    <sodipodi:guide
       position="-56.110552,310.79069"
       orientation="0,1"
       id="guide4197"
       inkscape:locked="false" />
    <sodipodi:guide
       position="-56.110552,279.02815"
       orientation="0,1"
       id="guide4199"
       inkscape:locked="false" />
  </sodipodi:namedview>
  <metadata
     id="metadata7">
    <rdf:RDF>
      <cc:Work
         rdf:about="">
        <dc:format>image/svg+xml</dc:format>
        <dc:type
           rdf:resource="http://purl.org/dc/dcmitype/StillImage" />
        <dc:title></dc:title>
      </cc:Work>
    </rdf:RDF>
  </metadata>
  <g
     inkscape:label="Layer 1"
     inkscape:groupmode="layer"
     id="layer1"
     transform="translate(-117.53357,-432.8052)">
    <path
       inkscape:export-ydpi="180"
       inkscape:export-xdpi="180"
       d="m 238.40601,468.7109 h -7.18113 v -35.9057 h 7.18113 z m 0,-14.36229 v -7.18112 h 14.29045 v 7.18112 z m 0,-14.36225 v -7.18116 h 21.54341 v 7.18116 z m 0,28.72454 v -7.18116 h 21.54341 v 7.18116 z m -50.50972,-28.72454 v -7.18116 h 35.90565 v 7.18116 z m 21.54336,28.72454 h -7.18112 v -28.72454 h 7.18112 z m -57.5436,-28.72454 v -7.18116 h 21.54341 v 7.18116 z m 0,14.36225 v -7.18112 h 21.54341 v 7.18112 z m 0,14.36229 h -7.18113 v -28.72454 h 7.18113 z m 28.72456,0 h -7.18115 v -28.72454 h 7.18115 z m -71.9059,0 h -7.18114 v -35.9057 h 7.18114 z m 0,-28.72454 v -7.18116 h 21.5434 v 7.18116 z m 0,28.72454 v -7.18116 h 21.5434 v 7.18116 z m 28.72455,-7.18116 h -7.18115 v -21.54338 h 7.18115 z"
       style="font-style:normal;font-variant:normal;font-weight:normal;font-stretch:normal;font-size:medium;line-height:125%;font-family:'Victors Pixel Font';-inkscape-font-specification:'Victors Pixel Font, Normal';text-align:start;letter-spacing:-2.79999995px;word-spacing:0px;writing-mode:lr-tb;text-anchor:start;fill:#ffffff;fill-opacity:1;stroke:none"
       id="path4438"
       inkscape:connector-curvature="0"
       transform="translate(16)" />
    <path
       inkscape:export-ydpi="180"
       inkscape:export-xdpi="180"
       d="m 426.69575,468.7109 h -7.18113 v -35.9057 h 7.18113 z m 0,-14.36229 v -7.18112 h 14.36228 v 7.18112 z m 21.54341,14.36229 h -7.18113 v -35.9057 h 7.18113 z m -72.05315,-28.72454 v -7.18116 h 35.90567 v 7.18116 z m 21.54339,28.72454 h -7.18113 v -28.72454 h 7.18113 z m -28.82609,0 h -7.18112 v -35.9057 h 7.18112 z m -57.46647,-7.18116 h -7.18113 V 432.8052 h 7.18113 z m 0,7.18116 v -7.18116 h 14.29045 v 7.18116 z m 21.54341,0 v -7.18116 h 14.29045 v 7.18116 z m 21.54341,-7.18116 h -7.18115 V 432.8052 h 7.18115 z m -21.54341,0 h -7.18115 v -21.54338 h 7.18115 z"
       style="font-style:normal;font-variant:normal;font-weight:normal;font-stretch:normal;font-size:medium;line-height:125%;font-family:'Victors Pixel Font';-inkscape-font-specification:'Victors Pixel Font, Normal';text-align:start;letter-spacing:-2.79999995px;word-spacing:0px;writing-mode:lr-tb;text-anchor:start;fill:#ffffff;fill-opacity:1;stroke:none"
       id="path4440"
       inkscape:connector-curvature="0" />
    <path
       inkscape:export-ydpi="180"
       inkscape:export-xdpi="180"
       d="m 629.11591,439.98636 v -7.18116 h 21.54341 v 7.18116 z m 0,14.36225 v -7.18112 h 21.54341 v 7.18112 z m 0,14.36229 h -7.18113 v -28.72454 h 7.18113 z m 28.72454,0 h -7.18113 v -28.72454 h 7.18113 z m -79.23428,-28.72454 v -7.18116 h 35.90567 v 7.18116 z m 21.54339,28.72454 h -7.18113 v -28.72454 h 7.18113 z m -57.54361,-28.72454 v -7.18116 h 21.54341 v 7.18116 z m 0,14.36225 v -7.18112 h 21.54341 v 7.18112 z m 0,14.36229 h -7.18113 v -28.72454 h 7.18113 z m 28.72454,0 h -7.18113 v -28.72454 h 7.18113 z m -71.90589,0 h -7.18113 v -35.9057 h 7.18113 z m 0,-28.72454 v -7.18116 h 21.54341 v 7.18116 z m 0,28.72454 v -7.18116 h 21.54341 v 7.18116 z m 28.72454,-7.18116 h -7.18113 v -21.54338 h 7.18113 z"
       style="font-style:normal;font-variant:normal;font-weight:normal;font-stretch:normal;font-size:medium;line-height:125%;font-family:'Victors Pixel Font';-inkscape-font-specification:'Victors Pixel Font, Normal';text-align:start;letter-spacing:-2.79999995px;word-spacing:0px;writing-mode:lr-tb;text-anchor:start;fill:#ffffff;fill-opacity:1;stroke:none"
       id="path4442"
       inkscape:connector-curvature="0"
       transform="translate(-16)" />
  </g>
</svg>
